<svg xml:space="preserve" style="enable-background:new 0 0 195 42;" viewBox="0 0 195 42" y="0px" x="0px" xmlns:xlink="http://www.w3.org/1999/xlink" xmlns="http://www.w3.org/2000/svg" id="Capa_1" version="1.1">
<style type="text/css">
	.st0{stroke:#1D1D1B;stroke-width:0.25;stroke-miterlimit:10;}
</style>
<g>
	<path d="M43.9,16.9c-0.1,0-0.4,0.1-0.4,0.3c-0.3,0.4-0.7,1.2-1.2,2.2c-0.7-2.3-2.9-3.2-4.7-3.2c-1.2,0-2.7,1.6-4.2,3.7
		c-2.4,3.7-4.5,9.5-4.5,12.5c0,0.4,0.1,0.9,0.4,1.4c-3.7-0.1-10.5,0.1-14.5,0.7c0-3.6,9.2-26,10.6-27c-0.3-0.3-2.3-1.7-3.3-1.7
		c-0.1,0-0.4,0-0.6,0.1c-3,4.7-11.1,24.7-11.1,28c0,1.7,1.9,3.7,3.6,4.2c3.7-1.6,10.5-2.7,16.3-2.7l0.1-0.1c0.9,0.7,2,1.3,3,1.3
		c0.6,0,3.2-4.2,5.8-8.9c-0.4,1.4-1.7,5.5-1.7,6.3c0,0.9,2.2,2.7,3.5,2.9c0-0.1-0.1-0.4-0.1-0.7c0-1.4,0.7-3.9,1.6-6.8
		c0.6-2,1.4-4.7,2.7-8.2c0.4-1,1.2-2.6,1.4-2.7C46.6,18.2,44.9,16.7,43.9,16.9z M32.8,34.1c-0.1,0-0.3-0.3-0.3-0.6
		c-0.1-4,4.6-15,7.2-15c1,0,1.4,1,1.7,2C38.8,25.8,33.8,34.1,32.8,34.1z" class="st0"></path>
	<path d="M60.7,16.4c-0.3-0.6-1.7-1.3-2.2-0.9c-2.2,2.2-8.8,15.7-9.6,18c0-1.6,0.7-6,1.4-9.6c0.6-2.7,1-4.7,1.2-4.9
		c-0.1-0.7-3.3-2.2-3.7-1.6c-0.9,2.6-2.4,11.9-2.4,15.2c0,0.6,0,0.9,0.1,1.2c0.1,0.1,0.1,0.4,0.4,0.7c0.7,0.9,2.2,2,3.3,2.2
		c0.1-0.1,1.3-3,3-6.3C54.2,26.1,59.1,17.3,60.7,16.4z" class="st0"></path>
	<path d="M71.8,21.3c0.4-1,1.2-2.6,1.4-2.7c0-0.4-1.9-1.7-2.9-1.7c-0.1,0-0.4,0.1-0.4,0.3c-0.3,0.4-0.7,1.2-1.2,2.2
		C68,17,65.9,16.2,64,16.2c-1.2,0-2.7,1.6-4.2,3.7c-2.4,3.7-4.5,9.5-4.5,12.5c0,1.9,2.6,4.2,4.7,4.2c0.6,0,3.2-4.2,5.8-8.9
		c-0.4,1.4-1.7,5.5-1.7,6.3c0,0.9,2.2,2.7,3.5,2.9c0-0.1-0.1-0.4-0.1-0.7c0-1.4,0.7-3.9,1.6-6.8C69.6,27.5,70.5,24.8,71.8,21.3z
		 M59.4,34.1c-0.1,0-0.3-0.3-0.3-0.6c-0.1-4,4.6-15,7.2-15c1,0,1.4,1,1.7,2C65.3,25.8,60.4,34.1,59.4,34.1z" class="st0"></path>
	<path d="M108.6,21.3c0.4-1,1.2-2.6,1.4-2.7c0-0.4-1.9-1.7-2.9-1.7c-0.1,0-0.4,0.1-0.4,0.3c-0.3,0.4-0.7,1.2-1.2,2.2
		c-0.7-2.3-2.9-3.2-4.7-3.2c-1.2,0-2.7,1.6-4.2,3.7c-1.3,2.2-2.6,4.9-3.5,7.5c-1.7,2.4-7.5,8.2-12.9,8.6c-2.3,0.1-4.2-1.4-4.3-3.5
		c-0.9-9.3,8.3-24.3,12.7-24.7c1.4-0.1,2.2,0.7,2.3,1.7c0.3,2.4-1.3,6.6-1.7,8.3c-0.1,0.3-0.1,0.6,0.1,0.6c2.2-0.1,5.9-6,5.8-7.8
		c-0.3-1.9-3.2-4.9-7-4.6c-8.3,0.7-16.8,16.5-16.1,25.2c0.6,5.5,7,8.6,10.8,7.9c3.5-0.6,7.6-5.2,9.8-8.2c-0.1,0.6-0.3,1.3-0.3,1.7
		c0,1.9,2.7,4.2,4.7,4.2c0.6,0,3.2-4.2,5.8-8.9c-0.4,1.4-1.7,5.5-1.7,6.3c0,0.9,2.2,2.7,3.5,2.9c0-0.1-0.1-0.4-0.1-0.7
		c0-1.4,0.7-3.9,1.6-6.8C106.4,27.5,107.2,24.8,108.6,21.3z M96.1,34.1c-0.1,0-0.3-0.3-0.3-0.6c-0.1-4,4.6-15,7.2-15
		c1,0,1.4,1,1.7,2C102.1,25.8,97.1,34.1,96.1,34.1z" class="st0"></path>
	<path d="M120,15.9c-1.2,0-5.8,6.6-7.3,10.6c1.3-4,2.9-7.9,3.3-7.9c0-0.3-1.9-1.6-2.9-1.6c-0.1,0-0.4,0-0.4,0.3
		c-2.2,3.6-5.5,14.8-5.5,16.4c0,0.9,2,2.7,3.3,2.9c0-0.1,0-0.3,0-0.6c0-1.4,1.6-5.3,2.3-6.9c2-4.3,4.7-8.3,7.2-10.9
		c-0.3,1.7-0.9,5.8-0.7,6.5c0,0.3,0.6,0.6,0.9,0.6c0.1-0.1,1-2,2-3.5c0.9-1.4,1.7-2.9,1.9-3.2C123.5,17.6,121.5,15.9,120,15.9z" class="st0"></path>
	<path d="M155,7c-0.1-0.7-2.2-1.7-2.7-1.6c-0.7,0.4-5.8,11.1-8.1,17.4c-1.7,4.9-3,9.2-3.9,11.9
		c-0.4-5.6-0.1-15.2,0.6-20.3c-0.9-1.7-3.5-2.6-4-2.2c-2.4,1.6-7.2,10.2-10.4,16.8c0.3-2.2,0.7-4.5,1.2-6.6
		c0.7-3.9,1.9-8.9,2.6-11.5c0.4-1.3,0.6-1.9,0.9-2c-0.1-0.6-2.4-1.7-3.2-1.6c-0.3,0-0.4,0.3-0.6,0.6c-1,2.2-2.3,8.5-3.5,13.8
		c-0.4,2.6-1.7,10.4-1.6,12.2c0.1,0.9,3,3,4.2,2.7c1.2-4.5,9.2-22.3,10.5-22.3c-1.3,9.8-0.9,21-0.1,22.1c0.7,1.7,3.6,2.6,4.9,2.6
		c-0.7-0.6,1.9-8.5,3.9-14.2C148.7,17.2,154,7.1,155,7z" class="st0"></path>
	<path d="M163,21.3c0.4-1,1.2-2.6,1.4-2.7c0-0.4-1.9-1.7-2.9-1.7c-0.1,0-0.4,0.1-0.4,0.3c-0.3,0.4-0.7,1.2-1.2,2.2
		c-0.7-2.3-2.9-3.2-4.7-3.2c-1.2,0-2.7,1.6-4.2,3.7c-2.3,3.7-4.5,9.5-4.5,12.5c0,1.9,2.6,4.2,4.7,4.2c0.6,0,3.2-4.2,5.8-8.9
		c-0.4,1.4-1.7,5.5-1.7,6.3c0,0.9,2.2,2.7,3.5,2.9c0-0.1-0.1-0.4-0.1-0.7c0-1.4,0.7-3.9,1.6-6.8C160.7,27.5,161.5,24.8,163,21.3z
		 M150.4,34.1c-0.1,0-0.3-0.3-0.3-0.6c-0.1-4,4.6-15,7.2-15c1,0,1.4,1,1.7,2C156.5,25.8,151.4,34.1,150.4,34.1z" class="st0"></path>
	<path d="M169.3,19.3c0-1.2,0.4-2,1.4-2c0.9,0,1.4,0.6,1.6,1.7c0.3,1.3,0,3.2,0,4c0,0.3,0.1,0.3,0.4,0.3s3-2.6,3-4
		c-0.4-2.2-2.6-3.7-4.5-3.6c-2.7,0-5.5,2.9-5.5,6.3c0,0.9,0.3,2,0.6,2.9c-1.9,1-6.3,4.9-6.2,7.5c0,2.9,3.5,4.5,6.6,4.3
		c2.4,0,6.5-1.6,6.5-4.9c0-0.1,0-0.4,0-0.6C173,29.7,169.3,22.9,169.3,19.3z M166.3,35c-1.7,0-3-1.2-3-3.2c0-1.9,1.3-3.9,3.5-6
		c1,2.4,2.2,5.2,2.3,7.2C169,34.7,167,35,166.3,35z" class="st0"></path>
	<path d="M191,18.6c-0.1-0.6-2-2.4-3.2-2.4c-1.3,0-3.5,2.4-4.5,3.7c-1.7,2.3-3.6,5.6-4.9,8.3c1.4-4.9,4.5-12.5,5.3-14.7
		c0.4-1,1.2-2.6,1.4-2.7c0-0.3-1.7-1.7-2.9-1.6c-0.1,0-0.4,0.1-0.4,0.3c-0.4,0.6-1.2,2.2-1.7,3.6c-0.9,2.2-2.7,7-3.6,9.6
		c-2.2,6.2-3.2,9.9-3.2,10.6c0,0.9,2.2,2.6,3.5,2.9c0-0.1,0-0.3,0-0.6c0-2.9,6.8-14,8.8-16.1c0.6-0.7,1.2-1,1.4-0.9
		c-1.4,2.9-4.9,12.7-4.9,15.1c0,0.9,2.3,2.7,3.6,3C185,36,190,21.2,191,18.6z" class="st0"></path>
</g>
</svg>
